<?xml version="1.0" encoding="UTF-8" standalone="no"?>
<!-- Created with Inkscape (http://www.inkscape.org/) -->

<svg
   xmlns:dc="http://purl.org/dc/elements/1.1/"
   xmlns:cc="http://creativecommons.org/ns#"
   xmlns:rdf="http://www.w3.org/1999/02/22-rdf-syntax-ns#"
   xmlns:svg="http://www.w3.org/2000/svg"
   xmlns="http://www.w3.org/2000/svg"
   xmlns:sodipodi="http://sodipodi.sourceforge.net/DTD/sodipodi-0.dtd"
   xmlns:inkscape="http://www.inkscape.org/namespaces/inkscape"
   xmlns:pathtrace="http://www.in2bits.org/pathtrace"
   version="1.1"
   width="303.5"
   height="80.794868"
   id="svg69952"
   inkscape:version="0.48.4 r9939"
   sodipodi:docname="in2bits.web.svg">
  <sodipodi:namedview
     pagecolor="#ffffff"
     bordercolor="#666666"
     borderopacity="1"
     objecttolerance="10"
     gridtolerance="10"
     guidetolerance="10"
     inkscape:pageopacity="0"
     inkscape:pageshadow="2"
     inkscape:window-width="1278"
     inkscape:window-height="916"
     id="namedview3007"
     showgrid="false"
     inkscape:zoom="2.1425335"
     inkscape:cx="145.53977"
     inkscape:cy="-39.913723"
     inkscape:window-x="59"
     inkscape:window-y="37"
     inkscape:window-maximized="0"
     inkscape:current-layer="g3029"
     fit-margin-top="0"
     fit-margin-left="0"
     fit-margin-right="0"
     fit-margin-bottom="0" />
    <defs id="defs69954">
        <clipPath id="LogoClipPath" transform="translate(-248.25,-259.60255)">
            <path
                 inkscape:connector-curvature="0"
                 style="font-size:medium;font-style:normal;font-variant:normal;font-weight:normal;font-stretch:normal;text-indent:0;text-align:start;text-decoration:none;line-height:normal;letter-spacing:normal;word-spacing:normal;text-transform:none;direction:ltr;block-progression:tb;writing-mode:lr-tb;text-anchor:start;baseline-shift:baseline;color:#000000;fill:#0e0e0e;fill-opacity:1;stroke:none;stroke-width:15;marker:none;visibility:visible;display:inline;overflow:visible;enable-background:accumulate;font-family:Sans;-inkscape-font-specification:Sans"
                 id="path6711-1"
                 d="m 462.875,259.60305 c -3.92693,0.049 -7.45522,3.66685 -7.40625,7.59375 l 0,43.65625 c -0.01,9.3041 2.2237,17.2506 7.875,22.5625 5.6512,5.3122 13.32845,6.875 21.59375,6.875 l 24.59375,0 23.03125,0 c 10.4887,0 19.1875,-8.66505 19.1875,-19.15625 0,-10.4913 -8.6989,-19.15625 -19.1875,-19.15625 l -12.71875,0 c -2.451,0 -4.1875,-1.72875 -4.1875,-4.15625 0,-2.4275 1.7366,-4.15625 4.1875,-4.15625 l 24.03125,0 c 3.96234,0.056 7.625,-3.5373 7.625,-7.5 0,-3.9627 -3.66266,-7.556 -7.625,-7.5 l -24.03125,0 c -10.4887,0 -19.1875,8.66495 -19.1875,19.15625 0,10.4913 8.6989,19.15625 19.1875,19.15625 l 12.71875,0 c 2.451,0 4.1875,1.72875 4.1875,4.15625 0,2.4274 -1.7366,4.15625 -4.1875,4.15625 l -23.03125,0 -24.59375,0 c -6.3487,0 -9.66515,-1.20335 -11.34375,-2.78125 -1.6786,-1.5779 -3.1327,-4.60445 -3.125,-11.65625 l 0,-17.1875 17.5625,0 c 3.96234,0.056 7.625,-3.5373 7.625,-7.5 0,-3.9627 -3.66266,-7.556 -7.625,-7.5 l -17.5625,0 0,-11.46875 c 0.0498,-3.9895 -3.60429,-7.64355 -7.59375,-7.59375 z m -75.0625,0.0313 c -3.91648,0.065 -7.42414,3.67705 -7.375,7.59375 l -0.0937,47.90625 c -0.056,3.9623 3.5373,7.59375 7.5,7.59375 3.9627,0 7.556,-3.63145 7.5,-7.59375 l 0,-21.5 11.46875,0 c 5.2076,-0.01 6.98025,1.0229 7.78125,1.875 0.8009,0.8521 1.71875,2.9242 1.71875,7.625 l 0,12.625 c 0,4.7008 -0.91785,6.7729 -1.71875,7.625 -0.801,0.8521 -2.57365,1.91195 -7.78125,1.90625 l -18.875,0 c -3.96234,-0.056 -7.59375,3.5373 -7.59375,7.5 0,3.9627 3.63141,7.556 7.59375,7.5 l 18.84375,0 c 0.011,2e-4 0.0213,0 0.0313,0 7.447,0 14.19005,-1.807 18.71875,-6.625 4.5352,-4.8247 5.78125,-11.28875 5.78125,-17.90625 l 0,-12.625 c 0,-6.6175 -1.24605,-13.08155 -5.78125,-17.90625 -4.5286,-4.818 -11.27175,-6.59665 -18.71875,-6.59375 l -0.0313,0 -11.34375,0 0,-11.40625 c 0.0502,-4 -3.62519,-7.66035 -7.625,-7.59375 z m -131.1875,0.0625 c -4.6306,0 -8.375,3.7444 -8.375,8.375 0,4.6306 3.7444,8.40625 8.375,8.40625 4.6306,0 8.40625,-3.77565 8.40625,-8.40625 0,-4.6306 -3.77565,-8.375 -8.40625,-8.375 z m 186.5625,0 c -4.6305,0 -8.375,3.7444 -8.375,8.375 0,4.6306 3.7445,8.40625 8.375,8.40625 4.6306,0 8.40625,-3.77565 8.40625,-8.40625 0,-4.6306 -3.77565,-8.375 -8.40625,-8.375 z M 278.65625,278.2906 a 7.50075,7.50075 0 0 0 -7.5,7.5 l 0,35.96875 c 0,2.0493 -1.41945,3.46875 -3.46875,3.46875 -2.0493,0 -3.46875,-1.41955 -3.46875,-3.46875 l 0,-35.625 a 7.50075,7.50075 0 1 0 -15,0 l 0,35.625 c 0,10.1 8.36875,18.46875 18.46875,18.46875 10.1,0 18.46875,-8.36885 18.46875,-18.46875 l 0,-28.46875 5.78125,0 c 6.3487,0 9.6339,1.2345 11.3125,2.8125 1.6786,1.5778 3.1326,4.60435 3.125,11.65625 l 0,25.03125 a 7.50075,7.50075 0 1 0 15,0 l 0,-25.03125 c 0.01,-9.3041 -2.19245,-17.28155 -7.84375,-22.59375 -5.6512,-5.3121 -13.32845,-6.875 -21.59375,-6.875 l -13.28125,0 z m 164.46875,0.25 c -3.91648,0.065 -7.42414,3.67705 -7.375,7.59375 l 0,46.59375 c -0.056,3.9623 3.53726,7.625 7.5,7.625 3.96274,0 7.55604,-3.6627 7.5,-7.625 l 0,-46.59375 c 0.0502,-4 -3.62519,-7.66035 -7.625,-7.59375 z" />
            <path
                 d="m 360.99992,325.32177 c -0.8626,0.0928 -1.58288,0.91391 -1.5625,1.78125 l 0,11.5 c -0.0131,0.92454 0.82536,1.77492 1.75,1.77492 0.92464,0 1.76307,-0.85038 1.75,-1.77492 l 0,-11.5 c 0.0234,-0.99257 -0.95039,-1.88779 -1.9375,-1.78125 z m 9.1875,0 c -1.49298,0 -2.92082,0.36028 -3.875,1.375 -0.95431,1.01458 -1.21875,2.39526 -1.21875,3.71875 l 0,4.875 c 0,1.32349 0.26444,2.67237 1.21875,3.6875 0.95418,1.01513 2.38119,1.37665 3.875,1.375 l 1.28125,0 c 1.49381,0 2.88944,-0.35987 3.84375,-1.375 0.95431,-1.01513 1.21875,-2.36401 1.21875,-3.6875 l 0,-4.875 c 0,-1.32349 -0.26444,-2.70417 -1.21875,-3.71875 -0.95431,-1.01472 -2.35077,-1.375 -3.84375,-1.375 z m 0,3.5 1.28125,0 c 0.84285,0 1.5625,0.18374 1.5625,1.59375 l 0,4.875 c 0.004,1.36395 -0.64063,1.5867 -1.5625,1.59375 l -1.28125,0 c -0.82422,0 -1.5625,-0.24439 -1.5625,-1.59375 l 0,-4.875 c 0.0174,-1.35253 0.66532,-1.58603 1.5625,-1.59375 z M 345.78525,278.6482 c -8.6316,0 -16.2603,4.5258 -19.4375,11.5313 -0.81946,1.7925 -0.89475,3.9117 -0.20457,5.7578 0.69018,1.8461 2.13729,3.3961 3.93166,4.2114 1.79437,0.8152 3.91378,0.8856 5.75825,0.191 1.84446,-0.6945 3.39113,-2.1452 4.20216,-3.9415 0.5647,-1.2452 1.9557,-2.75 5.75,-2.75 l 11.5625,0 c 2.4508,0 4.1875,1.7287 4.1875,4.1563 0,1.6022 -0.81675,2.8429 -2.03125,3.5624 l -21.59375,9.4063 c -1.3412,0.5824 -3.60645,0.9955 -6.59375,3.0937 -2.9872,2.0983 -5.5625,6.8905 -5.5625,11.3438 0,8.2571 6.93115,15.0938 15.15625,15.0938 l 14.40625,0 c 1.12476,0 2.03125,-0.9065 2.03125,-2.0313 l 0,-10.9375 c 0,-1.1248 -0.90649,-2.0312 -2.03125,-2.0312 l -13.34375,0 c 0.6863,-0.2821 0.67955,-0.2486 1.90625,-0.7813 l 21.15625,-9.2187 c 0.0628,-0.02 0.12528,-0.041 0.1875,-0.063 0.36556,-0.1285 0.72115,-0.2853 1.0625,-0.4687 0.062,-0.033 0.1259,-0.06 0.1875,-0.094 0.0419,-0.021 0.0835,-0.042 0.125,-0.063 5.9247,-3.2552 9.9375,-9.6422 9.9375,-16.8124 0,-10.4913 -8.6988,-19.1563 -19.1875,-19.1563 l -11.5625,0 z"
                 style="font-size:medium;font-style:normal;font-variant:normal;font-weight:normal;font-stretch:normal;text-indent:0;text-align:start;text-decoration:none;line-height:normal;letter-spacing:normal;word-spacing:normal;text-transform:none;direction:ltr;block-progression:tb;writing-mode:lr-tb;text-anchor:start;baseline-shift:baseline;color:#000000;fill:#1692e6;fill-opacity:1;stroke:none;stroke-width:2.53794599;marker:none;visibility:visible;display:inline;overflow:visible;enable-background:accumulate;font-family:Sans;-inkscape-font-specification:Sans"
                 id="path6719-2" />
        </clipPath>
    </defs>
  <g
     inkscape:groupmode="layer"
     id="layer4"
     inkscape:label="Logo"
     style="display:none"
     sodipodi:insensitive="true"
     transform="translate(-248.25,-259.60255)">
      <path
         inkscape:connector-curvature="0"
         style="font-size:medium;font-style:normal;font-variant:normal;font-weight:normal;font-stretch:normal;text-indent:0;text-align:start;text-decoration:none;line-height:normal;letter-spacing:normal;word-spacing:normal;text-transform:none;direction:ltr;block-progression:tb;writing-mode:lr-tb;text-anchor:start;baseline-shift:baseline;color:#000000;fill:#0e0e0e;fill-opacity:1;stroke:none;stroke-width:15;marker:none;visibility:visible;display:inline;overflow:visible;enable-background:accumulate;font-family:Sans;-inkscape-font-specification:Sans"
         id="path6711-1"
         d="m 462.875,259.60305 c -3.92693,0.049 -7.45522,3.66685 -7.40625,7.59375 l 0,43.65625 c -0.01,9.3041 2.2237,17.2506 7.875,22.5625 5.6512,5.3122 13.32845,6.875 21.59375,6.875 l 24.59375,0 23.03125,0 c 10.4887,0 19.1875,-8.66505 19.1875,-19.15625 0,-10.4913 -8.6989,-19.15625 -19.1875,-19.15625 l -12.71875,0 c -2.451,0 -4.1875,-1.72875 -4.1875,-4.15625 0,-2.4275 1.7366,-4.15625 4.1875,-4.15625 l 24.03125,0 c 3.96234,0.056 7.625,-3.5373 7.625,-7.5 0,-3.9627 -3.66266,-7.556 -7.625,-7.5 l -24.03125,0 c -10.4887,0 -19.1875,8.66495 -19.1875,19.15625 0,10.4913 8.6989,19.15625 19.1875,19.15625 l 12.71875,0 c 2.451,0 4.1875,1.72875 4.1875,4.15625 0,2.4274 -1.7366,4.15625 -4.1875,4.15625 l -23.03125,0 -24.59375,0 c -6.3487,0 -9.66515,-1.20335 -11.34375,-2.78125 -1.6786,-1.5779 -3.1327,-4.60445 -3.125,-11.65625 l 0,-17.1875 17.5625,0 c 3.96234,0.056 7.625,-3.5373 7.625,-7.5 0,-3.9627 -3.66266,-7.556 -7.625,-7.5 l -17.5625,0 0,-11.46875 c 0.0498,-3.9895 -3.60429,-7.64355 -7.59375,-7.59375 z m -75.0625,0.0313 c -3.91648,0.065 -7.42414,3.67705 -7.375,7.59375 l -0.0937,47.90625 c -0.056,3.9623 3.5373,7.59375 7.5,7.59375 3.9627,0 7.556,-3.63145 7.5,-7.59375 l 0,-21.5 11.46875,0 c 5.2076,-0.01 6.98025,1.0229 7.78125,1.875 0.8009,0.8521 1.71875,2.9242 1.71875,7.625 l 0,12.625 c 0,4.7008 -0.91785,6.7729 -1.71875,7.625 -0.801,0.8521 -2.57365,1.91195 -7.78125,1.90625 l -18.875,0 c -3.96234,-0.056 -7.59375,3.5373 -7.59375,7.5 0,3.9627 3.63141,7.556 7.59375,7.5 l 18.84375,0 c 0.011,2e-4 0.0213,0 0.0313,0 7.447,0 14.19005,-1.807 18.71875,-6.625 4.5352,-4.8247 5.78125,-11.28875 5.78125,-17.90625 l 0,-12.625 c 0,-6.6175 -1.24605,-13.08155 -5.78125,-17.90625 -4.5286,-4.818 -11.27175,-6.59665 -18.71875,-6.59375 l -0.0313,0 -11.34375,0 0,-11.40625 c 0.0502,-4 -3.62519,-7.66035 -7.625,-7.59375 z m -131.1875,0.0625 c -4.6306,0 -8.375,3.7444 -8.375,8.375 0,4.6306 3.7444,8.40625 8.375,8.40625 4.6306,0 8.40625,-3.77565 8.40625,-8.40625 0,-4.6306 -3.77565,-8.375 -8.40625,-8.375 z m 186.5625,0 c -4.6305,0 -8.375,3.7444 -8.375,8.375 0,4.6306 3.7445,8.40625 8.375,8.40625 4.6306,0 8.40625,-3.77565 8.40625,-8.40625 0,-4.6306 -3.77565,-8.375 -8.40625,-8.375 z M 278.65625,278.2906 a 7.50075,7.50075 0 0 0 -7.5,7.5 l 0,35.96875 c 0,2.0493 -1.41945,3.46875 -3.46875,3.46875 -2.0493,0 -3.46875,-1.41955 -3.46875,-3.46875 l 0,-35.625 a 7.50075,7.50075 0 1 0 -15,0 l 0,35.625 c 0,10.1 8.36875,18.46875 18.46875,18.46875 10.1,0 18.46875,-8.36885 18.46875,-18.46875 l 0,-28.46875 5.78125,0 c 6.3487,0 9.6339,1.2345 11.3125,2.8125 1.6786,1.5778 3.1326,4.60435 3.125,11.65625 l 0,25.03125 a 7.50075,7.50075 0 1 0 15,0 l 0,-25.03125 c 0.01,-9.3041 -2.19245,-17.28155 -7.84375,-22.59375 -5.6512,-5.3121 -13.32845,-6.875 -21.59375,-6.875 l -13.28125,0 z m 164.46875,0.25 c -3.91648,0.065 -7.42414,3.67705 -7.375,7.59375 l 0,46.59375 c -0.056,3.9623 3.53726,7.625 7.5,7.625 3.96274,0 7.55604,-3.6627 7.5,-7.625 l 0,-46.59375 c 0.0502,-4 -3.62519,-7.66035 -7.625,-7.59375 z" />
      <path
         d="m 360.99992,325.32177 c -0.8626,0.0928 -1.58288,0.91391 -1.5625,1.78125 l 0,11.5 c -0.0131,0.92454 0.82536,1.77492 1.75,1.77492 0.92464,0 1.76307,-0.85038 1.75,-1.77492 l 0,-11.5 c 0.0234,-0.99257 -0.95039,-1.88779 -1.9375,-1.78125 z m 9.1875,0 c -1.49298,0 -2.92082,0.36028 -3.875,1.375 -0.95431,1.01458 -1.21875,2.39526 -1.21875,3.71875 l 0,4.875 c 0,1.32349 0.26444,2.67237 1.21875,3.6875 0.95418,1.01513 2.38119,1.37665 3.875,1.375 l 1.28125,0 c 1.49381,0 2.88944,-0.35987 3.84375,-1.375 0.95431,-1.01513 1.21875,-2.36401 1.21875,-3.6875 l 0,-4.875 c 0,-1.32349 -0.26444,-2.70417 -1.21875,-3.71875 -0.95431,-1.01472 -2.35077,-1.375 -3.84375,-1.375 z m 0,3.5 1.28125,0 c 0.84285,0 1.5625,0.18374 1.5625,1.59375 l 0,4.875 c 0.004,1.36395 -0.64063,1.5867 -1.5625,1.59375 l -1.28125,0 c -0.82422,0 -1.5625,-0.24439 -1.5625,-1.59375 l 0,-4.875 c 0.0174,-1.35253 0.66532,-1.58603 1.5625,-1.59375 z M 345.78525,278.6482 c -8.6316,0 -16.2603,4.5258 -19.4375,11.5313 -0.81946,1.7925 -0.89475,3.9117 -0.20457,5.7578 0.69018,1.8461 2.13729,3.3961 3.93166,4.2114 1.79437,0.8152 3.91378,0.8856 5.75825,0.191 1.84446,-0.6945 3.39113,-2.1452 4.20216,-3.9415 0.5647,-1.2452 1.9557,-2.75 5.75,-2.75 l 11.5625,0 c 2.4508,0 4.1875,1.7287 4.1875,4.1563 0,1.6022 -0.81675,2.8429 -2.03125,3.5624 l -21.59375,9.4063 c -1.3412,0.5824 -3.60645,0.9955 -6.59375,3.0937 -2.9872,2.0983 -5.5625,6.8905 -5.5625,11.3438 0,8.2571 6.93115,15.0938 15.15625,15.0938 l 14.40625,0 c 1.12476,0 2.03125,-0.9065 2.03125,-2.0313 l 0,-10.9375 c 0,-1.1248 -0.90649,-2.0312 -2.03125,-2.0312 l -13.34375,0 c 0.6863,-0.2821 0.67955,-0.2486 1.90625,-0.7813 l 21.15625,-9.2187 c 0.0628,-0.02 0.12528,-0.041 0.1875,-0.063 0.36556,-0.1285 0.72115,-0.2853 1.0625,-0.4687 0.062,-0.033 0.1259,-0.06 0.1875,-0.094 0.0419,-0.021 0.0835,-0.042 0.125,-0.063 5.9247,-3.2552 9.9375,-9.6422 9.9375,-16.8124 0,-10.4913 -8.6988,-19.1563 -19.1875,-19.1563 l -11.5625,0 z"
         style="font-size:medium;font-style:normal;font-variant:normal;font-weight:normal;font-stretch:normal;text-indent:0;text-align:start;text-decoration:none;line-height:normal;letter-spacing:normal;word-spacing:normal;text-transform:none;direction:ltr;block-progression:tb;writing-mode:lr-tb;text-anchor:start;baseline-shift:baseline;color:#000000;fill:#1692e6;fill-opacity:1;stroke:none;stroke-width:2.53794599;marker:none;visibility:visible;display:inline;overflow:visible;enable-background:accumulate;font-family:Sans;-inkscape-font-specification:Sans"
         id="path6719-2" />
  </g>
  <g
     inkscape:groupmode="layer"
     id="layer5"
     inkscape:label="Trace"
     style="display:none"
     sodipodi:insensitive="true"
     transform="translate(-248.25,-259.60255)">
    <path
       style="fill:none;stroke:#000000;stroke-width:1px;stroke-linecap:butt;stroke-linejoin:miter;stroke-opacity:1"
       d="m 257.09571,267.82178 -0.16502,0.82508"
       id="path3035"
       inkscape:connector-curvature="0"
       pathtrace:duration="0.1" pathtrace:stroke="#0e0e0e"/>
    <path
       style="fill:none;stroke:#000000;stroke-width:1px;stroke-linecap:butt;stroke-linejoin:miter;stroke-opacity:1"
       d="m 257.09571,285.14851 0,38.77888 c 0.88567,4.19364 1.71889,8.41505 9.90099,8.74588 5.02065,0.024 10.0329,0.0217 12.0462,-9.40594 l 0,-37.45875 17.32674,0 c 3.98172,0.16955 9.22496,0.88799 11.38537,2.642 4.92281,3.99678 6.94155,7.8394 6.60143,15.17978 l 0,30.19802"
       id="path3010"
       inkscape:connector-curvature="0"
       sodipodi:nodetypes="ccccccscc"
       pathtrace:duration="0.75" pathtrace:stroke="#0e0e0e" />
    <path
       style="fill:none;stroke:#000000;stroke-width:1px;stroke-linecap:butt;stroke-linejoin:miter;stroke-opacity:1"
       d="m 333.33333,293.06931 c 1.6187,-3.32393 4.18224,-6.12294 9.73598,-7.26073 l 14.68647,0 c 3.52861,0.10519 6.94547,0.4618 8.74587,4.45545 2.80597,5.46479 2.50449,6.78634 2.80528,8.91089 -0.0238,5.17021 -2.87498,7.04189 -5.44554,9.24092 l -26.07261,11.22112 c -2.57085,1.52854 -4.85149,3.23845 -3.9604,6.9307 -0.31872,2.40245 1.53644,4.63767 6.9307,6.60066 l 30.19802,0"
       id="path3037"
       inkscape:connector-curvature="0"
       sodipodi:nodetypes="cccccccccc"
       pathtrace:duration="0.625" pathtrace:stroke="#1692e6" />
    <path
       style="fill:none;stroke:#000000;stroke-width:1px;stroke-linecap:butt;stroke-linejoin:miter;stroke-opacity:1"
       d="m 388.44885,266.50165 0,49.50495 0,-30.19802 22.77227,0 c 2.58526,0.21556 5.17052,0.74604 7.75578,3.13531 1.4438,1.61362 3.40657,2.53528 3.63036,5.77558 0.97572,1.70517 1.21436,3.41034 1.32013,5.11551 l 0,21.12212 c -0.60506,2.73024 -1.21012,4.16845 -1.81518,5.61056 -1.79611,2.76492 -3.26167,3.87709 -4.62046,4.45544 -2.14412,1.0473 -4.68379,1.3035 -7.26073,1.48515 l -22.60726,0"
       id="path3039"
       inkscape:connector-curvature="0"
       sodipodi:nodetypes="cccccccccccc"
       pathtrace:duration="0.75" pathtrace:stroke="#0e0e0e" />
    <path
       style="fill:none;stroke:#000000;stroke-width:1px;stroke-linecap:butt;stroke-linejoin:miter;stroke-opacity:1"
       d="M 443.56436,266.9967 z"
       id="path3041"
       inkscape:connector-curvature="0"
       pathtrace:duration="0.1" pathtrace:stroke="#0e0e0e" />
    <path
       style="fill:none;stroke:#000000;stroke-width:1px;stroke-linecap:butt;stroke-linejoin:miter;stroke-opacity:1"
       d="m 443.72937,286.13861 0,47.19472"
       id="path3043"
       inkscape:connector-curvature="0"
       pathtrace:duration="0.25" pathtrace:stroke="#0e0e0e" />
    <path
       style="fill:none;stroke:#000000;stroke-width:1px;stroke-linecap:butt;stroke-linejoin:miter;stroke-opacity:1"
       d="m 463.20132,266.66667 0,18.64686 24.91749,0 -25.08251,0 0,30.19802 c 0.52155,2.66877 0.54116,6.49955 2.31023,7.92079 0.92419,2.87665 2.83328,3.69838 4.62047,5.28053 3.75129,2.98079 7.0744,3.39247 10.39604,3.79538 l 53.30033,0 c 2.80528,-0.65267 5.61056,-1.475 8.41584,-4.29043 1.70297,-2.25742 2.95452,-4.96627 2.47525,-9.40594 0.318,-2.65426 -1.20077,-5.04613 -3.9604,-7.26073 -2.2338,-1.17654 -4.80794,-2.01274 -7.92079,-2.31023 l -14.35644,0 c -2.90212,-0.72495 -4.77455,-1.60335 -5.94059,-3.63036 -1.95276,-0.63245 -2.45014,-3.36051 -2.64027,-7.42574 -0.16484,-4.65326 1.27631,-7.37932 3.30033,-9.40594 1.68583,-2.35195 3.82845,-2.41995 5.9406,-2.64027 l 25.08251,0"
       id="path3045"
       inkscape:connector-curvature="0"
       sodipodi:nodetypes="ccccccccccccccccccc"
       pathtrace:duration="1" pathtrace:stroke="#0e0e0e" />
  </g>
  <g id="animationPathContainer" clip-path="url(#LogoClipPath)" />
  <!--<path style="stroke:rgb(0,0,255);stroke-width:5px;" d="M 10,10 L 10,20" />-->
</svg>
